<?xml version="1.0" encoding="utf-8"?>
<!-- Generator: Adobe Illustrator 23.0.1, SVG Export Plug-In . SVG Version: 6.00 Build 0)  -->
<svg version="1.1" id="Layer_1" xmlns="http://www.w3.org/2000/svg" xmlns:xlink="http://www.w3.org/1999/xlink" x="0px" y="0px"
	 viewBox="0 0 500 500" style="enable-background:new 0 0 500 500;" xml:space="preserve">
<style type="text/css">
	.st0{fill:#194A91;}
	.st1{fill:none;stroke:#194A91;stroke-width:26;stroke-linecap:round;stroke-linejoin:round;stroke-miterlimit:10;}
	.st2{fill:none;stroke:#194A91;stroke-width:26;stroke-linejoin:round;stroke-miterlimit:10;}
</style>
<g>
	<path class="st0" d="M390.66,107.5h-49.51V86.39c0-6.84-5.55-12.39-12.39-12.39h-11.98c-6.84,0-12.39,5.55-12.39,12.39v21.12H178
		V86.39c0-6.84-5.55-12.39-12.39-12.39h-11.98c-6.84,0-12.39,5.55-12.39,12.39v21.12H95.55c-7.18,0-13,5.82-13,13v295.11
		c0,7.18,5.82,13,13,13h295.11c7.18,0,13-5.82,13-13V120.5C403.66,113.32,397.84,107.5,390.66,107.5z M377.66,402.61H108.55V133.5
		h269.11V402.61z"/>
	<path class="st0" d="M330.23,328.85H206.34c-7.18,0-13,5.82-13,13s5.82,13,13,13h123.89c7.18,0,13-5.82,13-13
		S337.41,328.85,330.23,328.85z"/>
	<path class="st0" d="M330.23,263.36H206.34c-7.18,0-13,5.82-13,13s5.82,13,13,13h123.89c7.18,0,13-5.82,13-13
		S337.41,263.36,330.23,263.36z"/>
	<path class="st0" d="M239.47,223.87h90.77c7.18,0,13-5.82,13-13s-5.82-13-13-13h-90.77c-7.18,0-13,5.82-13,13
		S232.29,223.87,239.47,223.87z"/>
	<path class="st0" d="M152.7,228.56c2.34,3.44,6.19,5.55,10.36,5.68c0.13,0,0.26,0.01,0.39,0.01c4.02,0,7.82-1.86,10.29-5.05
		l36.09-46.73c4.39-5.68,3.34-13.85-2.34-18.23c-5.68-4.39-13.85-3.34-18.23,2.34l-25.13,32.55l-8.85-12.99
		c-4.04-5.93-12.13-7.47-18.06-3.43c-5.93,4.04-7.47,12.13-3.43,18.06L152.7,228.56z"/>
	<path class="st0" d="M166.09,263.96h-12.95c-3.27,0-5.93,2.65-5.93,5.93v12.95c0,3.27,2.65,5.93,5.93,5.93h12.95
		c3.27,0,5.93-2.65,5.93-5.93v-12.95C172.02,266.61,169.37,263.96,166.09,263.96z"/>
	<path class="st0" d="M166.09,329.45h-12.95c-3.27,0-5.93,2.65-5.93,5.93v12.95c0,3.27,2.65,5.93,5.93,5.93h12.95
		c3.27,0,5.93-2.65,5.93-5.93v-12.95C172.02,332.1,169.37,329.45,166.09,329.45z"/>
</g>
</svg>
